<?xml version="1.0" encoding="utf-8"?>
<!-- Generator: Adobe Illustrator 25.4.1, SVG Export Plug-In . SVG Version: 6.00 Build 0)  -->
<svg version="1.1" id="Layer_1" xmlns="http://www.w3.org/2000/svg" xmlns:xlink="http://www.w3.org/1999/xlink" x="0px" y="0px"
	 viewBox="0 0 255.1 184.3" style="enable-background:new 0 0 255.1 184.3;" xml:space="preserve">
<style type="text/css">
	.st0{fill:#50B848;}
	.st1{fill:#ED1C24;}
	.st2{fill:#808285;}
	.st3{fill:#FFCB05;}
	.st4{fill:#00A1E4;}
	.st5{fill:#00C0F3;}
	.st6{fill:#A6CE39;}
	.st7{fill:#00A651;}
	.st8{fill:#39B54A;}
	.st9{fill:#72BF44;}
	.st10{fill:#007DC5;}
	.st11{fill:#0054A6;}
	.st12{fill:#008FD5;}
	.st13{fill:#27AAE1;}
	.st14{fill:#F7941D;}
	.st15{fill:#8DC63F;}
	.st16{fill:#00AEEF;}
</style>
<path class="st0" d="M55.8,39.5c5.2-1.3,10.5,1.9,11.8,7.1s-1.9,10.5-7.1,11.8S50,56.5,48.7,51.3S50.6,40.8,55.8,39.5"/>
<path class="st1" d="M44.8,49.1c1.5,2,1.2,4.8-0.8,6.3s-4.8,1.2-6.3-0.8s-1.2-4.8,0.8-6.3C40.4,46.8,43.3,47.1,44.8,49.1"/>
<g>
	<path class="st2" d="M162.6,90v23.7c0,0.3,0.2,0.5,0.5,0.5h16.1c0.3,0,0.5-0.2,0.5-0.4c0-0.3-0.2-0.4-0.5-0.4h-15.6v-11.8h8.9
		c0.3,0,0.5-0.2,0.5-0.4c0-0.3-0.2-0.4-0.5-0.4h-8.9V90.4h15.1c0.3,0,0.5-0.2,0.5-0.4c0-0.3-0.2-0.4-0.5-0.4h-15.6
		C162.8,89.5,162.6,89.7,162.6,90 M156,95.2c0.3,0,0.5-0.2,0.5-0.4c0-0.1,0-0.2-0.1-0.3c-2.1-3.2-5.9-5.5-10.7-5.5
		c-7.8,0-13,6.2-13,12.8s5.2,12.8,13,12.8c4.8,0,8.6-2.3,10.7-5.5c0-0.1,0.1-0.1,0.1-0.3s-0.2-0.4-0.5-0.4c-0.2,0-0.3,0-0.4,0.2
		c-2.2,3.1-5.5,5.1-9.9,5.1c-7.3,0-11.9-5.9-11.9-11.9s4.6-11.9,11.9-11.9c4.4,0,7.8,2,9.9,5.1C155.7,95.2,155.8,95.2,156,95.2
		 M125.2,89.7V114c0,0.3,0.2,0.5,0.5,0.5s0.5-0.2,0.5-0.5V89.7c0-0.3-0.2-0.5-0.5-0.5S125.2,89.4,125.2,89.7 M103.9,113.3V89.7
		c0-0.3-0.2-0.5-0.5-0.5s-0.5,0.2-0.5,0.5v24c0,0.3,0.2,0.5,0.5,0.5h15.9c0.3,0,0.5-0.2,0.5-0.4c0-0.3-0.2-0.4-0.5-0.4h-15.4
		L103.9,113.3z M90.8,90.3c3.6,0,6,2.5,6,5.8s-2.4,5.8-6,5.8H80.1V90.4h10.7V90.3z M79.1,90v24c0,0.3,0.2,0.5,0.5,0.5
		s0.5-0.2,0.5-0.5v-11.3h10.5c4.5,0,7.2-2.9,7.2-6.6s-2.7-6.6-7.2-6.6h-11C79.3,89.5,79.1,89.7,79.1,90"/>
	<path class="st2" d="M44.9,90.4c0.3,0,0.5-0.2,0.5-0.4c0-0.3-0.2-0.4-0.5-0.4H25.3c-0.3,0-0.5,0.2-0.5,0.4c0,0.3,0.2,0.4,0.5,0.4
		h9.3V114c0,0.3,0.2,0.5,0.5,0.5s0.5-0.2,0.5-0.5V90.4H44.9z"/>
	<path class="st2" d="M233.9,83.4c0-1-0.8-1.6-1.8-1.6h-13.3V74h7.2c0.9,0,1.7-0.7,1.7-1.6s-0.8-1.6-1.7-1.6h-7.2v-7.2h12.7
		c1,0,1.8-0.7,1.8-1.6s-0.8-1.6-1.8-1.6H217c-1.1,0-1.9,0.8-1.9,1.8v21.1c0,1,0.8,1.8,1.9,1.8h15.1C233.1,85,233.9,84.3,233.9,83.4
		 M193.4,83.5v-6.1l5.5-5.1l8.2,12.2c0.4,0.6,0.8,0.8,1.7,0.8c1,0,1.7-0.9,1.7-1.6c0-0.3-0.1-0.7-0.3-1l-8.5-12.8l7.6-7
		c0.4-0.3,0.6-0.8,0.6-1.3c0-0.9-0.9-1.6-1.9-1.6c-0.4,0-0.8,0.1-1.3,0.5l-13.2,12.2V61.8c0-1.1-0.7-1.8-1.9-1.8s-1.9,0.8-1.9,1.8
		v21.7c0,1,0.8,1.8,1.9,1.8S193.4,84.5,193.4,83.5 M184.3,78.5c0-4.2-3.5-5.8-9.8-7.7c-4.5-1.3-6.5-2.1-6.5-4.3
		c0-2.4,2.5-3.4,6.3-3.4c2.6,0,4.8,0.8,6.7,1.8c0.2,0.1,0.5,0.2,0.7,0.2c1.1,0,1.6-0.7,1.6-1.6c0-1.2-1.9-2-3.2-2.5
		c-1.9-0.7-3.9-1-5.9-1c-5.9,0-10.1,2.2-10.1,6.7c0,3.5,2.2,5.5,9.2,7.5c4.7,1.3,7,2.1,7,4.6c0,2.1-2,3.7-6.2,3.7
		c-3.2,0-5.2-1-7.4-2.3c-0.5-0.3-0.9-0.4-1.3-0.4c-0.9,0-1.6,0.5-1.6,1.4c0,0.6,0.4,1.2,1,1.7c2.3,1.7,5.8,2.7,9.3,2.7
		C180.9,85.5,184.3,82.5,184.3,78.5 M148.8,80l-8.3-18.9c-0.4-0.8-0.9-1-1.7-1c-0.9,0-1.8,0.6-1.8,1.7c0,0.2,0.1,0.4,0.2,0.7
		l10,21.9c0.3,0.6,0.8,1,1.6,1s1.3-0.4,1.6-1l10-21.9c0.1-0.3,0.2-0.5,0.2-0.7c0-1.1-0.9-1.7-1.8-1.7c-0.7,0-1.3,0.2-1.7,1L148.8,80
		z M130.4,75.7h-9.6l4.8-10.5L130.4,75.7z M127.2,61.1c-0.3-0.7-0.9-1-1.7-1s-1.4,0.3-1.7,1L113.4,83c-0.1,0.3-0.2,0.5-0.2,0.7
		c0,0.9,0.6,1.7,1.8,1.7c0.9,0,1.4-0.4,1.7-1l2.6-5.4h12.4l2.6,5.4c0.3,0.6,0.8,1,1.7,1c1.2,0,1.8-0.8,1.8-1.7
		c0-0.3-0.1-0.5-0.2-0.7L127.2,61.1z M101.5,63.6c2.9,0,4.4,1.8,4.4,4s-1.5,4-4.4,4H92v-8H101.5z M92,83.5v-8.8h8.3l5,9.6
		c0.3,0.6,0.8,1,1.7,1c1.2,0,1.9-0.9,1.9-1.8c0-0.3-0.1-0.5-0.2-0.8l-4.4-8.5c3.5-0.9,5.4-3.4,5.4-6.7c0-4.3-3-7.3-8.9-7.3H90.2
		c-1.2,0-1.9,0.7-1.9,1.8v21.4c0,1,0.8,1.8,1.9,1.8C91.3,85.3,92,84.5,92,83.5"/>
	<path class="st2" d="M37.3,80.4l-10-19.3c-0.4-0.7-0.8-1.1-1.7-1.1c-1,0-1.8,0.6-1.8,1.7v21.9c0,0.9,0.7,1.7,1.8,1.7
		s1.8-0.8,1.8-1.7v-15l8.2,15.7c0.3,0.6,0.8,1,1.7,1s1.3-0.4,1.7-1l8.2-15.7v15c0,0.9,0.7,1.7,1.8,1.7c1.1,0,1.8-0.8,1.8-1.7V61.7
		c0-1.1-0.7-1.7-1.8-1.7c-0.9,0-1.3,0.4-1.7,1.1L37.3,80.4z"/>
</g>
<path class="st3" d="M58.9,23.1c2.6,3.3,2,8-1.3,10.5c-3.3,2.6-8,2-10.5-1.3c-2.6-3.3-2-8,1.3-10.5C51.6,19.3,56.3,19.9,58.9,23.1"
	/>
<path class="st4" d="M48.6,121c-2.1-0.2-3.5-2.1-3.3-4.2s2.1-3.5,4.2-3.3s3.5,2.1,3.3,4.2C52.5,119.8,50.6,121.2,48.6,121"/>
<path class="st5" d="M50.9,147.1c-2.7-0.3-4.6-2.8-4.3-5.5s2.8-4.6,5.5-4.3s4.6,2.8,4.3,5.5C56.1,145.4,53.6,147.4,50.9,147.1"/>
<path class="st6" d="M74.6,41.4c6.7,0,12.2-5.5,12.2-12.2V17.1H74.6c-6.7,0-12.2,5.5-12.2,12.2S67.9,41.4,74.6,41.4"/>
<path class="st7" d="M44.1,45.2c-2.5,0-4.5-2-4.5-4.5v-4.5h4.5c2.5,0,4.5,2,4.5,4.5S46.6,45.2,44.1,45.2"/>
<path class="st8" d="M35.8,26.3c2.1,0,3.8,1.7,3.8,3.8v3.8h-3.8c-2.1,0-3.8-1.7-3.8-3.8C32.1,28,33.8,26.3,35.8,26.3"/>
<path class="st9" d="M37.1,42.6c0,4.4-3.5,7.9-7.9,7.9h-7.9v-7.9c0-4.4,3.5-7.9,7.9-7.9S37.1,38.2,37.1,42.6"/>
<path class="st10" d="M52,126.4c0-5,4.1-9.1,9.1-9.1h9.1v9.1c0,5-4.1,9.1-9.1,9.1S52,131.4,52,126.4"/>
<path class="st11" d="M39.2,140c-5.6,0-10.1-4.5-10.1-10.1v-10.1h10.1c5.6,0,10.1,4.5,10.1,10.1C49.3,135.5,44.8,140,39.2,140"/>
<path class="st12" d="M32.6,148.1c0-3.3,2.7-6,6-6h6v6c0,3.3-2.7,6-6,6C35.3,154.2,32.6,151.5,32.6,148.1"/>
<path class="st13" d="M60.5,143.2c-1.7,0-3-1.3-3-3v-3h3c1.7,0,3,1.3,3,3S62.1,143.2,60.5,143.2"/>
<path class="st14" d="M77.8,45.2c3.7,0,6.8,3,6.8,6.8v6.8h-6.8c-3.7,0-6.8-3-6.8-6.8C71.1,48.2,74.1,45.2,77.8,45.2"/>
<path class="st15" d="M69.9,63.7c-2,0-4,0.7-5.6,1.9c-2.2,1.7-3.4,4.3-3.4,7.1v9h9c2.1,0,4-0.6,5.6-1.9c3.9-3.1,4.6-8.8,1.5-12.7
	c-1.5-1.9-3.6-3.1-6-3.4C70.7,63.7,70.3,63.7,69.9,63.7 M59.1,85.5h-1.9V72.7c0-4,1.8-7.7,4.9-10.1c2.3-1.8,5-2.7,7.9-2.7
	c0.5,0,1,0,1.6,0.1c3.4,0.4,6.4,2.1,8.6,4.8c4.4,5.6,3.4,13.6-2.2,18c-2.2,1.8-5,2.7-7.9,2.7H59.1z"/>
<path class="st16" d="M59.8,90.1c-2.7,0-5.2,0.9-7.3,2.5c-5.1,4-6,11.5-2,16.6c1.9,2.5,4.7,4.1,7.9,4.4c3.1,0.4,6.2-0.5,8.7-2.4
	c2.8-2.2,4.5-5.6,4.5-9.3V90.1H59.8z M59.8,114.7c-0.5,0-1,0-1.6-0.1c-3.4-0.4-6.4-2.1-8.6-4.8c-4.4-5.6-3.4-13.6,2.2-18
	c2.2-1.8,5-2.7,7.9-2.7h12.8v12.8c0,4-1.8,7.7-4.9,10.1C65.4,113.7,62.7,114.7,59.8,114.7"/>
<path class="st12" d="M57.2,167.2c-5,0-9-4-9-9v-9h9c5,0,9,4,9,9S62.1,167.2,57.2,167.2"/>
</svg>
